<?xml version="1.0" encoding="iso-8859-1"?>
<!-- Generator: Adobe Illustrator 19.0.0, SVG Export Plug-In . SVG Version: 6.00 Build 0)  -->
<svg version="1.1" id="Capa_1" xmlns="http://www.w3.org/2000/svg" xmlns:xlink="http://www.w3.org/1999/xlink" x="0px" y="0px"
	 viewBox="0 0 485.663 485.663" style="enable-background:new 0 0 485.663 485.663;" xml:space="preserve">
<g transform="matrix(1.25 0 0 -1.25 0 45)">
	<g>
		<g>
			<path style="fill:#F3D2A2;" d="M366-79.397c-0.466,6.929-3.231,13.426-7.669,18.705l-4.05,23.404
				c-4.278,22.824-25.407,38.525-48.492,36.056L39.64-43.739C18.227-46.026,1.525-63.331,0-84.824l20.025-126.817
				c3.47-24.678,24.485-43.099,49.391-43.395c7.703-0.08,14.086-0.182,16.646-0.307l107.895-5.268
				c-4.119-5.495-9.341-12.288-9.341-19.547v-0.58c0-17.988,20.15-34.816,38.138-34.816h82.853c8.647,0,16.941,4.562,23.051,10.672
				l50.335,50.87c6.633,6.645,10.081,16.111,9.466,25.486L366-79.397z"/>
			<g>
				<path style="fill:#D2A077;" d="M84.685-254.376c-5.393,0-10.183,3.846-11.184,9.341L50.062-116.101
					c-1.126,6.19,2.981,12.106,9.159,13.232c6.224,1.104,12.106-2.981,13.232-9.159l23.438-128.933
					c1.115-6.178-2.981-12.106-9.159-13.221C86.039-254.319,85.356-254.376,84.685-254.376"/>
				<path style="fill:#D2A077;" d="M155.011-254.376c-5.894,0-10.877,4.528-11.332,10.502L131.959-91.491
					c-0.489,6.269,4.198,11.73,10.468,12.22c6.246,0.501,11.73-4.221,12.22-10.479l11.719-152.371
					c0.489-6.269-4.21-11.742-10.468-12.22C155.602-254.364,155.295-254.376,155.011-254.376"/>
				<path style="fill:#D2A077;" d="M237.01-266.959c-5.78,0-8.613,0.011-10.82,12.083l-0.501,0.023
					c0.011,0.626,0.08,1.24,0.182,1.843c-1.968,12.151-3.504,34.918-6.372,77.562c-2.674,39.708-5.53,85.925-5.53,96.54
					c0,6.281,5.086,11.378,11.378,11.378c6.281,0,11.378-5.097,11.378-11.378c0-17.442,9.045-151.598,11.162-172.316
					c0.364-1.104,0.558-2.276,0.558-3.504c0-3.015-1.229-6.337-3.356-8.465C242.95-265.332,240.037-266.959,237.01-266.959"/>
				<path style="fill:#D2A077;" d="M277.686-277.825h-75.753c-6.281,0-11.378,5.086-11.378,11.378
					c0,6.292,5.097,11.378,11.378,11.378h75.753c16.589,0,30.083,13.494,30.083,30.083v146.079c0,6.281,5.086,11.378,11.378,11.378
					c6.281,0,11.378-5.097,11.378-11.378v-146.079C330.524-254.125,306.825-277.825,277.686-277.825"/>
			</g>
		</g>
	</g>
</g>
<g>
</g>
<g>
</g>
<g>
</g>
<g>
</g>
<g>
</g>
<g>
</g>
<g>
</g>
<g>
</g>
<g>
</g>
<g>
</g>
<g>
</g>
<g>
</g>
<g>
</g>
<g>
</g>
<g>
</g>
</svg>
